<svg width="62" height="62" viewBox="0 0 62 62" fill="none" xmlns="http://www.w3.org/2000/svg">
<path d="M61.84 30.92C61.84 24.8046 60.0266 18.8266 56.6291 13.7418C53.2315 8.65701 48.4025 4.69392 42.7526 2.35366C37.1027 0.013397 30.8857 -0.598922 24.8878 0.594133C18.8899 1.78719 13.3805 4.73203 9.05626 9.05627C4.73202 13.3805 1.78719 18.8899 0.594134 24.8878C-0.598921 30.8857 0.0133939 37.1027 2.35366 42.7526C4.69392 48.4025 8.65704 53.2315 13.7418 56.6291C18.8266 60.0266 24.8046 61.84 30.92 61.84C34.9805 61.84 39.0012 61.0402 42.7526 59.4864C46.504 57.9325 49.9126 55.6549 52.7837 52.7838C55.6549 49.9126 57.9325 46.504 59.4864 42.7526C61.0403 39.0012 61.84 34.9805 61.84 30.92Z" fill="#FF9933"/>
<path d="M45.2601 31.5301C45.0802 31.54 44.9 31.54 44.7201 31.5301L44.9301 29.8501C44.9847 29.4475 44.8789 29.0397 44.6358 28.7143C44.3927 28.3889 44.0316 28.1719 43.6301 28.1101C43.2296 28.0651 42.8277 28.181 42.5127 28.4323C42.1977 28.6835 41.9953 29.0496 41.9501 29.4501C41.9501 29.4501 41.3201 34.4501 40.7501 39.2001H21.1501C20.7592 39.2314 20.3945 39.4089 20.1286 39.697C19.8626 39.9852 19.7149 40.3629 19.7149 40.7551C19.7149 41.1472 19.8626 41.5249 20.1286 41.8131C20.3945 42.1013 20.7592 42.2787 21.1501 42.3101H40.3301C40.0601 44.4301 39.8501 46.1701 39.7701 46.8401H17.1501C17.4401 44.5301 18.6201 34.9101 19.0701 31.2701H18.9101C17.8331 31.265 16.7749 30.9875 15.8341 30.4632C14.8933 29.9389 14.1005 29.1849 13.5297 28.2716C12.9588 27.3583 12.6285 26.3154 12.5694 25.24C12.5104 24.1646 12.7245 23.0917 13.1919 22.1214C13.6593 21.1511 14.3647 20.3149 15.2424 19.6907C16.1202 19.0665 17.1416 18.6747 18.2116 18.5518C19.2816 18.4289 20.3654 18.5788 21.3618 18.9877C22.3582 19.3966 23.2348 20.051 23.9101 20.8901C24.0701 21.1101 24.2901 21.1101 24.3301 20.8001C24.4267 19.1967 25.1191 17.6874 26.2712 16.5682C27.4233 15.449 28.9521 14.8008 30.5576 14.7507C32.163 14.7006 33.7293 15.2523 34.9489 16.2975C36.1686 17.3426 36.9537 18.8059 37.1501 20.4001C36.9168 20.8083 36.713 21.2327 36.5401 21.6701L39.1501 23.1201C39.5172 21.9941 40.1886 20.9916 41.09 20.2235C41.9915 19.4554 43.0878 18.9516 44.2578 18.7678C45.4277 18.5841 46.6257 18.7275 47.7192 19.1823C48.8127 19.6371 49.7591 20.3855 50.4537 21.3447C51.1483 22.3039 51.5641 23.4366 51.655 24.6174C51.7459 25.7982 51.5083 26.9811 50.9687 28.0353C50.4291 29.0896 49.6084 29.974 48.5974 30.5907C47.5863 31.2075 46.4244 31.5326 45.2401 31.5301H45.2601Z" fill="white"/>
<path d="M45.26 15.6699C43.1461 15.656 41.0903 16.3613 39.4301 17.6699C38.7689 16.0877 37.687 14.7167 36.302 13.7058C34.9169 12.6948 33.2814 12.0825 31.573 11.9351C29.8646 11.7878 28.1484 12.1111 26.6107 12.8699C25.0729 13.6288 23.7724 14.7942 22.85 16.2399C21.6212 15.6722 20.2836 15.3788 18.9301 15.3799C16.7034 15.3937 14.5525 16.19 12.8537 17.6296C11.1549 19.0691 10.0164 21.0602 9.6374 23.2544C9.25839 25.4486 9.66302 27.7062 10.7805 29.6322C11.8979 31.5582 13.657 33.0299 15.75 33.7898L13.9801 48.1698C13.9527 48.3886 13.9704 48.6106 14.0324 48.8222C14.0943 49.0338 14.199 49.2304 14.34 49.3998C14.4819 49.5603 14.6556 49.6895 14.8502 49.779C15.0447 49.8686 15.2559 49.9165 15.47 49.9198H41.15C41.5224 49.9168 41.8804 49.7762 42.1555 49.5252C42.4305 49.2742 42.603 48.9304 42.64 48.5598L44.3601 34.5598C44.6601 34.5598 44.97 34.5598 45.28 34.5598C47.7996 34.5598 50.216 33.559 51.9976 31.7774C53.7792 29.9958 54.78 27.5794 54.78 25.0598C54.78 22.5403 53.7792 20.1239 51.9976 18.3423C50.216 16.5607 47.7996 15.5598 45.28 15.5598L45.26 15.6699ZM45.26 31.5299C45.0802 31.5398 44.8999 31.5398 44.72 31.5299L44.9301 29.8498C44.9846 29.4473 44.8789 29.0395 44.6358 28.7141C44.3926 28.3887 44.0315 28.1717 43.63 28.1098C43.2296 28.0649 42.8277 28.1808 42.5126 28.4321C42.1976 28.6833 41.9952 29.0494 41.95 29.4498C41.95 29.4498 41.32 34.4498 40.75 39.1998H21.15C20.7592 39.2312 20.3944 39.4086 20.1285 39.6968C19.8625 39.985 19.7149 40.3627 19.7149 40.7548C19.7149 41.147 19.8625 41.5247 20.1285 41.8129C20.3944 42.1011 20.7592 42.2785 21.15 42.3098H40.33C40.06 44.4298 39.85 46.1698 39.77 46.8398H17.15C17.44 44.5298 18.62 34.9098 19.07 31.2698H18.91C17.833 31.2648 16.7748 30.9872 15.834 30.463C14.8932 29.9387 14.1005 29.1847 13.5296 28.2714C12.9588 27.3581 12.6284 26.3152 12.5693 25.2398C12.5103 24.1644 12.7244 23.0915 13.1918 22.1212C13.6592 21.1509 14.3646 20.3146 15.2424 19.6905C16.1201 19.0663 17.1416 18.6745 18.2116 18.5516C19.2816 18.4287 20.3653 18.5786 21.3617 18.9875C22.3581 19.3963 23.2348 20.0508 23.91 20.8898C24.07 21.1098 24.29 21.1098 24.33 20.7998C24.4267 19.1965 25.119 17.6872 26.2711 16.568C27.4233 15.4488 28.9521 14.8006 30.5575 14.7505C32.163 14.7004 33.7292 15.2521 34.9489 16.2972C36.1685 17.3424 36.9536 18.8057 37.15 20.3998C36.9167 20.8081 36.7129 21.2325 36.5401 21.6699L39.15 23.1198C39.5171 21.9939 40.1885 20.9914 41.09 20.2233C41.9914 19.4552 43.0877 18.9514 44.2577 18.7676C45.4277 18.5839 46.6256 18.7273 47.7191 19.1821C48.8126 19.6369 49.759 20.3853 50.4536 21.3445C51.1482 22.3037 51.564 23.4363 51.6549 24.6172C51.7458 25.798 51.5083 26.9809 50.9686 28.0351C50.429 29.0893 49.6083 29.9738 48.5973 30.5905C47.5863 31.2073 46.4244 31.5324 45.2401 31.5299H45.26Z" fill="#401C00"/>
</svg>
