<svg width="307" height="75" viewBox="0 0 307 75" fill="none" xmlns="http://www.w3.org/2000/svg">
<path d="M61.84 37.5C61.84 31.3846 60.0266 25.4065 56.6291 20.3217C53.2315 15.237 48.4025 11.2739 42.7526 8.93361C37.1027 6.59335 30.8857 5.98103 24.8878 7.17409C18.8899 8.36714 13.3805 11.312 9.05626 15.6362C4.73202 19.9605 1.78719 25.4699 0.594134 31.4678C-0.598921 37.4657 0.0133939 43.6827 2.35366 49.3325C4.69392 54.9824 8.65704 59.8115 13.7418 63.209C18.8266 66.6065 24.8046 68.42 30.92 68.42C34.9805 68.42 39.0012 67.6202 42.7526 66.0663C46.504 64.5125 49.9126 62.2349 52.7837 59.3637C55.6549 56.4925 57.9325 53.0839 59.4864 49.3325C61.0403 45.5812 61.84 41.5604 61.84 37.5Z" fill="#FF9933"/>
<path d="M45.26 38.11C45.0802 38.12 44.8999 38.12 44.7201 38.11L44.9301 36.43C44.9846 36.0275 44.8789 35.6196 44.6358 35.2942C44.3926 34.9688 44.0315 34.7519 43.63 34.69C43.2296 34.6451 42.8277 34.7609 42.5127 35.0122C42.1976 35.2635 41.9952 35.6296 41.95 36.03C41.95 36.03 41.32 41.03 40.75 45.78H21.15C20.7592 45.8114 20.3945 45.9888 20.1285 46.277C19.8625 46.5651 19.7149 46.9429 19.7149 47.335C19.7149 47.7271 19.8625 48.1049 20.1285 48.3931C20.3945 48.6812 20.7592 48.8586 21.15 48.89H40.33C40.06 51.01 39.85 52.75 39.77 53.42H17.15C17.44 51.11 18.62 41.49 19.07 37.85H18.9101C17.833 37.845 16.7748 37.5674 15.834 37.0431C14.8932 36.5188 14.1005 35.7649 13.5296 34.8516C12.9588 33.9383 12.6284 32.8953 12.5694 31.8199C12.5103 30.7445 12.7245 29.6717 13.1919 28.7013C13.6593 27.731 14.3647 26.8948 15.2424 26.2706C16.1201 25.6465 17.1416 25.2547 18.2116 25.1318C19.2816 25.0088 20.3653 25.1588 21.3617 25.5677C22.3581 25.9765 23.2348 26.631 23.9101 27.47C24.0701 27.69 24.29 27.69 24.33 27.38C24.4267 25.7767 25.119 24.2673 26.2711 23.1482C27.4233 22.029 28.9521 21.3807 30.5575 21.3306C32.163 21.2806 33.7292 21.8322 34.9489 22.8774C36.1685 23.9226 36.9536 25.3858 37.15 26.98C36.9167 27.3883 36.7129 27.8127 36.5401 28.25L39.15 29.7C39.5171 28.574 40.1886 27.5716 41.09 26.8034C41.9914 26.0353 43.0877 25.5315 44.2577 25.3478C45.4277 25.164 46.6256 25.3075 47.7191 25.7622C48.8126 26.217 49.759 26.9654 50.4536 27.9246C51.1482 28.8838 51.564 30.0165 51.6549 31.1973C51.7458 32.3781 51.5083 33.5611 50.9686 34.6153C50.429 35.6695 49.6083 36.5539 48.5973 37.1707C47.5863 37.7875 46.4244 38.1126 45.2401 38.11H45.26Z" fill="white"/>
<path d="M45.26 22.2499C43.1461 22.2361 41.0903 22.9414 39.4301 24.2499C38.7689 22.6677 37.687 21.2968 36.302 20.2859C34.9169 19.2749 33.2814 18.6626 31.573 18.5152C29.8646 18.3679 28.1484 18.6911 26.6107 19.45C25.0729 20.2089 23.7724 21.3743 22.85 22.8199C21.6212 22.2523 20.2836 21.9588 18.9301 21.9599C16.7034 21.9737 14.5525 22.7701 12.8537 24.2096C11.1549 25.6492 10.0164 27.6402 9.6374 29.8344C9.25839 32.0286 9.66302 34.2862 10.7805 36.2122C11.8979 38.1382 13.657 39.61 15.75 40.3699L13.9801 54.7499C13.9527 54.9687 13.9704 55.1907 14.0324 55.4023C14.0943 55.6139 14.199 55.8105 14.34 55.9799C14.4819 56.1404 14.6556 56.2696 14.8502 56.3591C15.0447 56.4486 15.2559 56.4966 15.47 56.4999H41.15C41.5224 56.4968 41.8804 56.3563 42.1555 56.1053C42.4305 55.8542 42.603 55.5104 42.64 55.1399L44.3601 41.1399C44.6601 41.1399 44.97 41.1399 45.28 41.1399C47.7996 41.1399 50.216 40.139 51.9976 38.3574C53.7792 36.5758 54.78 34.1595 54.78 31.6399C54.78 29.1204 53.7792 26.704 51.9976 24.9224C50.216 23.1408 47.7996 22.1399 45.28 22.1399L45.26 22.2499ZM45.26 38.1099C45.0802 38.1199 44.8999 38.1199 44.72 38.1099L44.9301 36.4299C44.9846 36.0274 44.8789 35.6196 44.6358 35.2941C44.3926 34.9687 44.0315 34.7518 43.63 34.6899C43.2296 34.645 42.8277 34.7609 42.5126 35.0121C42.1976 35.2634 41.9952 35.6295 41.95 36.0299C41.95 36.0299 41.32 41.0299 40.75 45.7799H21.15C20.7592 45.8113 20.3944 45.9887 20.1285 46.2769C19.8625 46.565 19.7149 46.9428 19.7149 47.3349C19.7149 47.7271 19.8625 48.1048 20.1285 48.393C20.3944 48.6811 20.7592 48.8586 21.15 48.8899H40.33C40.06 51.0099 39.85 52.7499 39.77 53.4199H17.15C17.44 51.1099 18.62 41.4899 19.07 37.8499H18.91C17.833 37.8449 16.7748 37.5673 15.834 37.043C14.8932 36.5187 14.1005 35.7648 13.5296 34.8515C12.9588 33.9382 12.6284 32.8953 12.5693 31.8198C12.5103 30.7444 12.7244 29.6716 13.1918 28.7013C13.6592 27.7309 14.3646 26.8947 15.2424 26.2706C16.1201 25.6464 17.1416 25.2546 18.2116 25.1317C19.2816 25.0088 20.3653 25.1587 21.3617 25.5676C22.3581 25.9764 23.2348 26.6309 23.91 27.4699C24.07 27.6899 24.29 27.6899 24.33 27.3799C24.4267 25.7766 25.119 24.2673 26.2711 23.1481C27.4233 22.0289 28.9521 21.3807 30.5575 21.3306C32.163 21.2805 33.7292 21.8321 34.9489 22.8773C36.1685 23.9225 36.9536 25.3857 37.15 26.9799C36.9167 27.3882 36.7129 27.8126 36.5401 28.2499L39.15 29.6999C39.5171 28.574 40.1885 27.5715 41.09 26.8034C41.9914 26.0352 43.0877 25.5315 44.2577 25.3477C45.4277 25.1639 46.6256 25.3074 47.7191 25.7622C48.8126 26.2169 49.759 26.9653 50.4536 27.9246C51.1482 28.8838 51.564 30.0164 51.6549 31.1972C51.7458 32.378 51.5083 33.561 50.9686 34.6152C50.429 35.6694 49.6083 36.5538 48.5973 37.1706C47.5863 37.7874 46.4244 38.1125 45.2401 38.1099H45.26Z" fill="#401C00"/>
<path d="M95.168 21.656L95.936 27.48C95.5094 28.184 94.912 28.8347 94.144 29.432C93.3974 30.0293 92.4267 30.52 91.232 30.904C90.0587 31.2667 88.6294 31.448 86.944 31.448C84.0854 31.4267 81.6 30.968 79.488 30.072C77.3974 29.1547 75.7867 27.832 74.656 26.104C73.5254 24.376 72.96 22.264 72.96 19.768C72.96 17.336 73.5147 15.256 74.624 13.528C75.7334 11.7787 77.3334 10.4453 79.424 9.528C81.5147 8.61067 84.032 8.152 86.976 8.152C88.768 8.152 90.3574 8.30133 91.744 8.6C93.152 8.89867 94.304 9.24 95.2 9.624L94.88 15.736H94.592C93.952 13.4747 93.024 11.9173 91.808 11.064C90.592 10.1893 89.1627 9.752 87.52 9.752C85.9414 9.752 84.5867 10.1467 83.456 10.936C82.3467 11.7253 81.4934 12.856 80.896 14.328C80.2987 15.8 80 17.5813 80 19.672C80 21.7627 80.2774 23.5653 80.832 25.08C81.3867 26.5733 82.176 27.736 83.2 28.568C84.2454 29.3787 85.4934 29.8053 86.944 29.848C88.672 29.848 90.048 29.592 91.072 29.08C92.096 28.568 92.896 27.7147 93.472 26.52C94.048 25.304 94.528 23.6827 94.912 21.656H95.168ZM106.175 11.8V31H99.903V11.8H106.175ZM112.895 29.528L114.207 31H106.111V29.528H112.895ZM115.199 24.28L114.271 31H108.319L109.247 29.528C110.079 29.528 110.868 29.3253 111.615 28.92C112.383 28.4933 113.055 27.896 113.631 27.128C114.207 26.3387 114.623 25.3893 114.879 24.28H115.199ZM99.999 29.016L99.967 31H97.887V30.68C97.887 30.68 97.9404 30.68 98.047 30.68C98.1537 30.68 98.2177 30.68 98.239 30.68C98.687 30.68 99.071 30.52 99.391 30.2C99.7324 29.88 99.903 29.4853 99.903 29.016H99.999ZM106.111 13.784V11.8H108.223V12.12C108.202 12.12 108.138 12.12 108.031 12.12C107.924 12.12 107.871 12.12 107.871 12.12C107.402 12.12 107.007 12.28 106.687 12.6C106.367 12.8987 106.196 13.2933 106.175 13.784H106.111ZM99.999 13.784H99.903C99.903 13.2933 99.7324 12.8987 99.391 12.6C99.071 12.28 98.687 12.12 98.239 12.12C98.2177 12.12 98.1537 12.12 98.047 12.12C97.9404 12.12 97.887 12.12 97.887 12.12V11.8H99.999V13.784ZM123.732 11.8V23.864C123.732 25.7413 124.137 27.2133 124.948 28.28C125.78 29.3253 126.932 29.848 128.404 29.848C129.854 29.848 130.974 29.3573 131.764 28.376C132.553 27.3733 132.958 25.9867 132.98 24.216V11.8H135.508V23.864C135.508 26.2107 134.814 28.056 133.428 29.4C132.041 30.7227 130.036 31.384 127.412 31.384C123.934 31.384 121.406 30.7227 119.828 29.4C118.249 28.0773 117.46 26.2533 117.46 23.928V11.8H123.732ZM117.524 11.8V13.432H117.46C117.46 13.0267 117.321 12.696 117.044 12.44C116.766 12.184 116.436 12.056 116.052 12.056C116.052 12.056 115.977 12.056 115.828 12.056C115.7 12.056 115.636 12.056 115.636 12.056V11.8H117.524ZM125.556 11.8V12.056C125.556 12.056 125.481 12.056 125.332 12.056C125.182 12.056 125.108 12.056 125.108 12.056C124.724 12.056 124.393 12.184 124.116 12.44C123.86 12.696 123.732 13.0267 123.732 13.432H123.668V11.8H125.556ZM133.044 11.8V13.432H132.98C132.958 13.0267 132.809 12.696 132.532 12.44C132.276 12.184 131.956 12.056 131.572 12.056C131.572 12.056 131.497 12.056 131.348 12.056C131.22 12.056 131.156 12.056 131.156 12.056V11.8H133.044ZM137.332 11.8V12.056C137.332 12.056 137.257 12.056 137.108 12.056C136.98 12.056 136.916 12.056 136.916 12.056C136.532 12.056 136.201 12.184 135.924 12.44C135.646 12.696 135.508 13.0267 135.508 13.432H135.444V11.8H137.332ZM142.132 11.8H148.372C149.374 11.8 150.334 11.8747 151.252 12.024C152.169 12.152 152.98 12.3973 153.684 12.76C154.388 13.1013 154.942 13.5813 155.348 14.2C155.753 14.8187 155.956 15.608 155.956 16.568C155.956 17.464 155.785 18.2107 155.444 18.808C155.102 19.4053 154.665 19.8427 154.132 20.12C153.598 20.3973 153.033 20.536 152.436 20.536C153.289 20.5573 154.078 20.7707 154.804 21.176C155.529 21.56 156.116 22.1147 156.564 22.84C157.012 23.544 157.236 24.4187 157.236 25.464C157.236 26.4453 157.022 27.288 156.596 27.992C156.169 28.6747 155.572 29.24 154.804 29.688C154.036 30.136 153.118 30.4667 152.052 30.68C151.006 30.8933 149.854 31 148.596 31H146.356C146.356 31 146.356 30.8827 146.356 30.648C146.356 30.392 146.356 30.1467 146.356 29.912C146.356 29.656 146.356 29.528 146.356 29.528H146.42C147.081 29.528 147.689 29.3893 148.244 29.112C148.82 28.8347 149.278 28.3653 149.62 27.704C149.982 27.0427 150.164 26.1467 150.164 25.016C150.164 24.4187 150.121 23.864 150.036 23.352C149.95 22.84 149.801 22.4027 149.588 22.04C149.396 21.656 149.129 21.368 148.788 21.176C148.446 20.9627 148.009 20.856 147.476 20.856V20.6C147.902 20.6 148.244 20.5147 148.5 20.344C148.777 20.1733 148.99 19.9387 149.14 19.64C149.289 19.32 149.385 18.9467 149.428 18.52C149.492 18.072 149.524 17.592 149.524 17.08C149.524 15.5867 149.236 14.5733 148.66 14.04C148.105 13.5067 147.444 13.24 146.676 13.24H142.388C142.388 13.2187 142.366 13.0907 142.324 12.856C142.281 12.6213 142.238 12.3867 142.196 12.152C142.153 11.9173 142.132 11.8 142.132 11.8ZM146.58 11.8V31H140.404V11.8H146.58ZM140.5 29.016V31H138.42V30.68C138.462 30.68 138.526 30.68 138.612 30.68C138.697 30.68 138.75 30.68 138.772 30.68C139.241 30.68 139.636 30.52 139.956 30.2C140.276 29.88 140.425 29.4853 140.404 29.016H140.5ZM140.5 13.784H140.404C140.425 13.2933 140.276 12.8987 139.956 12.6C139.636 12.28 139.241 12.12 138.772 12.12C138.75 12.12 138.697 12.12 138.612 12.12C138.526 12.12 138.462 12.12 138.42 12.12V11.8H140.5V13.784ZM170.899 8.6H177.811C179.411 8.6 180.883 8.76 182.227 9.08C183.571 9.4 184.648 9.96533 185.459 10.776C186.291 11.5653 186.707 12.696 186.707 14.168C186.707 15.192 186.504 16.0453 186.099 16.728C185.694 17.4107 185.171 17.9227 184.531 18.264C183.912 18.6053 183.24 18.7867 182.515 18.808C183.56 18.8507 184.52 19.1067 185.395 19.576C186.291 20.0453 187.006 20.7067 187.539 21.56C188.072 22.392 188.339 23.4053 188.339 24.6C188.339 26.072 187.902 27.288 187.027 28.248C186.174 29.1867 184.99 29.88 183.475 30.328C181.982 30.776 180.264 31 178.323 31H175.411C175.411 31 175.411 30.8613 175.411 30.584C175.432 30.3067 175.443 30.04 175.443 29.784C175.443 29.5067 175.443 29.368 175.443 29.368H176.115C176.968 29.368 177.747 29.1973 178.451 28.856C179.176 28.5147 179.752 27.96 180.179 27.192C180.606 26.424 180.819 25.4 180.819 24.12C180.819 23.352 180.734 22.6693 180.563 22.072C180.392 21.4533 180.136 20.9307 179.795 20.504C179.475 20.056 179.059 19.7253 178.547 19.512C178.056 19.2773 177.47 19.16 176.787 19.16V18.872C177.299 18.872 177.747 18.776 178.131 18.584C178.515 18.392 178.824 18.1253 179.059 17.784C179.315 17.4213 179.507 16.984 179.635 16.472C179.763 15.9387 179.827 15.3413 179.827 14.68C179.827 13.528 179.656 12.632 179.315 11.992C178.995 11.3307 178.558 10.872 178.003 10.616C177.448 10.3387 176.819 10.2 176.115 10.2H171.219C171.219 10.1787 171.187 10.04 171.123 9.784C171.08 9.528 171.027 9.272 170.963 9.016C170.92 8.73867 170.899 8.6 170.899 8.6ZM175.699 8.6V31H169.139V8.6H175.699ZM169.235 28.664V31H166.675V30.68C166.718 30.68 166.792 30.68 166.899 30.68C167.006 30.68 167.07 30.68 167.091 30.68C167.646 30.68 168.115 30.488 168.499 30.104C168.904 29.6987 169.118 29.2187 169.139 28.664H169.235ZM169.235 10.936H169.139C169.118 10.3813 168.904 9.912 168.499 9.528C168.115 9.12267 167.646 8.92 167.091 8.92C167.07 8.92 167.006 8.92 166.899 8.92C166.792 8.92 166.718 8.92 166.675 8.92V8.6H169.235V10.936ZM198.049 11.8V31H191.777V11.8H198.049ZM191.873 29.016V31H189.793V30.68C189.793 30.68 189.847 30.68 189.953 30.68C190.06 30.68 190.124 30.68 190.145 30.68C190.572 30.68 190.945 30.52 191.265 30.2C191.607 29.88 191.777 29.4853 191.777 29.016H191.873ZM197.985 29.016H198.049C198.071 29.4853 198.241 29.88 198.561 30.2C198.881 30.52 199.265 30.68 199.713 30.68C199.713 30.68 199.767 30.68 199.873 30.68C199.98 30.68 200.044 30.68 200.065 30.68V31H197.985V29.016ZM197.985 13.784V11.8H200.033V12.12C200.033 12.12 199.98 12.12 199.873 12.12C199.788 12.12 199.735 12.12 199.713 12.12C199.265 12.12 198.881 12.28 198.561 12.6C198.241 12.8987 198.071 13.2933 198.049 13.784H197.985ZM191.873 13.784H191.777C191.777 13.2933 191.607 12.8987 191.265 12.6C190.945 12.28 190.572 12.12 190.145 12.12C190.124 12.12 190.06 12.12 189.953 12.12C189.847 12.12 189.793 12.12 189.793 12.12V11.8H191.873V13.784ZM208.458 11.416C208.778 11.416 209.29 11.4373 209.994 11.48C210.698 11.5013 211.434 11.544 212.202 11.608C212.992 11.672 213.685 11.7467 214.282 11.832C214.88 11.896 215.242 11.96 215.37 12.024L214.666 16.376H214.474C214.474 15.352 214.101 14.52 213.354 13.88C212.608 13.24 211.594 12.92 210.314 12.92C209.312 12.92 208.533 13.112 207.978 13.496C207.424 13.8587 207.104 14.3707 207.018 15.032C206.976 15.5013 207.072 15.896 207.306 16.216C207.562 16.5147 207.904 16.7707 208.33 16.984C208.757 17.1973 209.194 17.4 209.642 17.592L213.77 19.48C214.837 19.9493 215.701 20.6533 216.362 21.592C217.024 22.5093 217.29 23.704 217.162 25.176C217.056 26.5413 216.65 27.6933 215.946 28.632C215.242 29.5493 214.261 30.2427 213.002 30.712C211.744 31.16 210.229 31.384 208.458 31.384C207.349 31.384 206.378 31.2987 205.546 31.128C204.714 30.9573 204.032 30.7333 203.498 30.456C202.965 30.1787 202.57 29.88 202.314 29.56C202.08 29.0693 201.984 28.472 202.026 27.768C202.069 27.064 202.208 26.3813 202.442 25.72C202.677 25.0373 202.954 24.4933 203.274 24.088H203.466C203.424 25.048 203.616 25.976 204.042 26.872C204.49 27.7467 205.152 28.472 206.026 29.048C206.922 29.6027 208 29.8907 209.258 29.912C210.453 29.9333 211.306 29.6773 211.818 29.144C212.352 28.6107 212.618 28.0347 212.618 27.416C212.618 26.8187 212.362 26.2747 211.85 25.784C211.36 25.2933 210.549 24.8027 209.418 24.312L206.058 22.744C204.693 22.168 203.68 21.3253 203.018 20.216C202.378 19.0853 202.165 17.8053 202.378 16.376C202.549 15.2667 202.89 14.3493 203.402 13.624C203.936 12.8773 204.629 12.3227 205.482 11.96C206.336 11.5973 207.328 11.416 208.458 11.416ZM215.434 11.704L215.338 12.248H211.178V11.704H215.434ZM230.644 11.896V31H224.34V11.896H230.644ZM237.076 11.768V13.272H217.908V11.768H237.076ZM237.076 13.144V17.304H236.756V17.144C236.777 15.928 236.457 14.9893 235.796 14.328C235.134 13.6453 234.196 13.2933 232.98 13.272V13.144H237.076ZM237.076 11.288V12.088L233.844 11.768C234.228 11.768 234.644 11.7467 235.092 11.704C235.561 11.64 235.977 11.576 236.34 11.512C236.724 11.4267 236.969 11.352 237.076 11.288ZM224.404 29.016V31H222.356V30.68C222.356 30.68 222.409 30.68 222.516 30.68C222.622 30.68 222.676 30.68 222.676 30.68C223.145 30.68 223.529 30.52 223.828 30.2C224.148 29.88 224.318 29.4853 224.34 29.016H224.404ZM230.516 29.016H230.644C230.622 29.4853 230.772 29.88 231.092 30.2C231.433 30.52 231.838 30.68 232.308 30.68C232.308 30.68 232.361 30.68 232.468 30.68C232.574 30.68 232.628 30.68 232.628 30.68V31H230.516V29.016ZM222.004 13.144V13.272C220.788 13.2933 219.849 13.6453 219.188 14.328C218.548 14.9893 218.228 15.928 218.228 17.144V17.304H217.908V13.144H222.004ZM217.908 11.288C218.078 11.352 218.345 11.4267 218.708 11.512C219.07 11.576 219.465 11.64 219.892 11.704C220.34 11.7467 220.756 11.768 221.14 11.768L217.908 12.088V11.288ZM246.834 11.8H249.81C250.62 11.8 251.452 11.8747 252.306 12.024C253.159 12.152 253.948 12.3973 254.674 12.76C255.399 13.1227 255.986 13.656 256.434 14.36C256.882 15.0427 257.106 15.9493 257.106 17.08C257.106 17.72 256.988 18.4027 256.754 19.128C256.54 19.8533 256.135 20.504 255.538 21.08C254.962 21.6347 254.119 22.008 253.01 22.2C253.82 22.4133 254.535 22.8187 255.154 23.416C255.772 24.0133 256.22 24.5573 256.498 25.048C256.647 25.304 256.807 25.624 256.978 26.008C257.17 26.3707 257.394 26.776 257.65 27.224C257.906 27.672 258.194 28.152 258.514 28.664C258.919 29.2827 259.271 29.7413 259.57 30.04C259.868 30.3173 260.156 30.4987 260.434 30.584C260.711 30.648 261.02 30.68 261.362 30.68V31H257.586C256.455 31 255.474 30.9573 254.642 30.872C253.81 30.7653 253.063 30.488 252.402 30.04C251.762 29.5707 251.132 28.8133 250.514 27.768C250.279 27.3627 250.076 26.9893 249.906 26.648C249.756 26.2853 249.628 25.9333 249.522 25.592C249.415 25.2507 249.319 24.8987 249.234 24.536C249.17 24.1733 249.095 23.8 249.01 23.416C248.86 22.6693 248.668 22.1893 248.434 21.976C248.199 21.7413 248.039 21.6133 247.954 21.592V21.336C247.975 21.336 247.996 21.336 248.018 21.336C248.039 21.336 248.071 21.336 248.114 21.336C248.455 21.336 248.796 21.2293 249.138 21.016C249.479 20.8027 249.778 20.4507 250.034 19.96C250.29 19.448 250.46 18.744 250.546 17.848C250.546 17.784 250.556 17.6667 250.578 17.496C250.599 17.3253 250.599 17.1013 250.578 16.824C250.535 15.9067 250.375 15.2133 250.098 14.744C249.82 14.2533 249.5 13.912 249.138 13.72C248.796 13.528 248.487 13.4213 248.21 13.4C247.932 13.3573 247.772 13.336 247.73 13.336C247.687 13.336 247.634 13.336 247.57 13.336C247.527 13.336 247.356 13.336 247.058 13.336C247.036 13.336 247.004 13.208 246.962 12.952C246.94 12.696 246.908 12.44 246.866 12.184C246.844 11.928 246.834 11.8 246.834 11.8ZM247.09 11.8V31H240.786V11.8H247.09ZM240.882 29.016L240.85 31H238.802V30.68C238.844 30.68 238.887 30.68 238.93 30.68C238.994 30.68 239.068 30.68 239.154 30.68C239.58 30.68 239.954 30.52 240.274 30.2C240.615 29.88 240.786 29.4853 240.786 29.016H240.882ZM240.882 13.784H240.786C240.786 13.2933 240.626 12.8987 240.306 12.6C239.986 12.28 239.612 12.12 239.186 12.12C239.1 12.12 239.026 12.12 238.962 12.12C238.898 12.12 238.844 12.12 238.802 12.12V11.8H240.85L240.882 13.784ZM247.026 29.016H247.09C247.09 29.5707 247.282 29.9867 247.666 30.264C248.05 30.5413 248.423 30.68 248.786 30.68C248.786 30.68 248.818 30.68 248.882 30.68C248.946 30.68 249.01 30.68 249.074 30.68V31H247.058L247.026 29.016ZM271.757 11.416C273.591 11.416 275.223 11.64 276.653 12.088C278.103 12.536 279.33 13.1867 280.333 14.04C281.357 14.8933 282.125 15.9387 282.637 17.176C283.17 18.4133 283.437 19.832 283.437 21.432C283.437 23.0107 283.17 24.4187 282.637 25.656C282.125 26.872 281.357 27.9067 280.333 28.76C279.33 29.6133 278.103 30.264 276.653 30.712C275.223 31.16 273.591 31.384 271.757 31.384C269.943 31.384 268.311 31.16 266.861 30.712C265.431 30.264 264.205 29.6133 263.181 28.76C262.178 27.9067 261.41 26.872 260.877 25.656C260.365 24.4187 260.109 23.0107 260.109 21.432C260.109 19.832 260.365 18.4133 260.877 17.176C261.41 15.9387 262.178 14.8933 263.181 14.04C264.205 13.1867 265.431 12.536 266.861 12.088C268.311 11.64 269.943 11.416 271.757 11.416ZM271.757 29.944C272.887 29.944 273.826 29.6133 274.573 28.952C275.341 28.2693 275.917 27.2987 276.301 26.04C276.685 24.76 276.877 23.224 276.877 21.432C276.877 19.6187 276.685 18.072 276.301 16.792C275.917 15.512 275.341 14.5413 274.573 13.88C273.826 13.1973 272.887 12.856 271.757 12.856C270.647 12.856 269.709 13.1973 268.941 13.88C268.194 14.5413 267.618 15.512 267.213 16.792C266.829 18.072 266.637 19.6187 266.637 21.432C266.637 23.224 266.829 24.76 267.213 26.04C267.618 27.2987 268.194 28.2693 268.941 28.952C269.709 29.6133 270.647 29.944 271.757 29.944Z" fill="white"/>
<path d="M78.056 49.2H81.152C81.872 49.2 82.576 49.28 83.264 49.44C83.952 49.6 84.56 49.856 85.088 50.208C85.632 50.56 86.064 51.024 86.384 51.6C86.704 52.176 86.864 52.888 86.864 53.736C86.864 54.408 86.72 55.08 86.432 55.752C86.16 56.408 85.736 56.976 85.16 57.456C84.584 57.92 83.84 58.2 82.928 58.296C83.44 58.456 83.904 58.744 84.32 59.16C84.752 59.576 85.104 59.992 85.376 60.408C85.392 60.44 85.48 60.584 85.64 60.84C85.816 61.096 86.024 61.416 86.264 61.8C86.52 62.168 86.784 62.544 87.056 62.928C87.328 63.312 87.576 63.648 87.8 63.936C88.152 64.368 88.472 64.72 88.76 64.992C89.048 65.248 89.352 65.44 89.672 65.568C89.992 65.68 90.36 65.744 90.776 65.76V66H88.424C87.56 66 86.776 65.928 86.072 65.784C85.368 65.624 84.744 65.36 84.2 64.992C83.656 64.624 83.184 64.128 82.784 63.504C82.656 63.312 82.512 63.072 82.352 62.784C82.208 62.48 82.056 62.16 81.896 61.824C81.736 61.488 81.576 61.168 81.416 60.864C81.272 60.544 81.144 60.256 81.032 60C80.92 59.744 80.84 59.544 80.792 59.4C80.584 58.888 80.336 58.504 80.048 58.248C79.776 57.992 79.48 57.84 79.16 57.792V57.552C79.208 57.552 79.304 57.552 79.448 57.552C79.592 57.552 79.744 57.552 79.904 57.552C80.336 57.552 80.752 57.464 81.152 57.288C81.568 57.112 81.936 56.824 82.256 56.424C82.576 56.024 82.8 55.472 82.928 54.768C82.96 54.624 82.984 54.456 83 54.264C83.032 54.072 83.04 53.856 83.024 53.616C82.976 52.464 82.688 51.624 82.16 51.096C81.632 50.552 80.976 50.272 80.192 50.256C79.968 50.24 79.72 50.24 79.448 50.256C79.192 50.256 78.952 50.256 78.728 50.256C78.52 50.256 78.376 50.256 78.296 50.256C78.296 50.24 78.272 50.152 78.224 49.992C78.192 49.816 78.152 49.64 78.104 49.464C78.072 49.288 78.056 49.2 78.056 49.2ZM78.368 49.2V66H74.768V49.2H78.368ZM74.84 64.248V66H72.92V65.76C72.936 65.76 72.984 65.76 73.064 65.76C73.16 65.76 73.216 65.76 73.232 65.76C73.648 65.76 74 65.616 74.288 65.328C74.592 65.024 74.752 64.664 74.768 64.248H74.84ZM74.84 50.952H74.768C74.752 50.536 74.592 50.184 74.288 49.896C74 49.592 73.648 49.44 73.232 49.44C73.216 49.44 73.16 49.44 73.064 49.44C72.984 49.44 72.936 49.44 72.92 49.44V49.2H74.84V50.952ZM78.296 64.248H78.368C78.368 64.664 78.52 65.024 78.824 65.328C79.128 65.616 79.488 65.76 79.904 65.76C79.936 65.76 79.992 65.76 80.072 65.76C80.152 65.76 80.192 65.76 80.192 65.76V66H78.296V64.248ZM104.488 51.6V66H101.032V51.6H104.488ZM110.104 65.04L110.656 66H104.44V65.04H110.104ZM109.288 58.392V59.352H104.44V58.392H109.288ZM110.368 51.6V52.56H104.44V51.6H110.368ZM111.64 61.584L110.728 66H106.576L107.32 65.04C108.008 65.04 108.616 64.904 109.144 64.632C109.688 64.344 110.152 63.944 110.536 63.432C110.92 62.904 111.216 62.288 111.424 61.584H111.64ZM109.288 59.304V61.416H109.048V61.224C109.048 60.696 108.88 60.256 108.544 59.904C108.224 59.552 107.784 59.368 107.224 59.352V59.304H109.288ZM109.288 56.328V58.44H107.224V58.392C107.784 58.376 108.224 58.192 108.544 57.84C108.88 57.472 109.048 57.024 109.048 56.496V56.328H109.288ZM110.368 52.512V55.056H110.128V54.84C110.128 54.136 109.936 53.584 109.552 53.184C109.184 52.784 108.648 52.576 107.944 52.56V52.512H110.368ZM110.368 51.24V51.816L107.848 51.6C108.312 51.6 108.8 51.56 109.312 51.48C109.824 51.384 110.176 51.304 110.368 51.24ZM101.08 64.488L101.2 66H99.4245V65.76C99.4245 65.76 99.4725 65.76 99.5685 65.76C99.6645 65.76 99.7205 65.76 99.7365 65.76C100.088 65.76 100.384 65.64 100.624 65.4C100.88 65.144 101.016 64.84 101.032 64.488H101.08ZM101.08 53.112H101.032C101.016 52.744 100.88 52.44 100.624 52.2C100.384 51.96 100.088 51.84 99.7365 51.84C99.7205 51.84 99.6645 51.84 99.5685 51.84C99.4725 51.84 99.4245 51.84 99.4245 51.84V51.6H101.2L101.08 53.112ZM126.987 51.288C127.307 51.288 127.691 51.304 128.139 51.336C128.603 51.368 129.059 51.408 129.507 51.456C129.955 51.488 130.347 51.536 130.683 51.6C131.035 51.648 131.275 51.696 131.403 51.744L131.091 54.672H130.875C130.875 53.936 130.619 53.352 130.107 52.92C129.595 52.488 128.859 52.272 127.899 52.272C127.131 52.272 126.507 52.44 126.027 52.776C125.563 53.112 125.315 53.56 125.283 54.12C125.251 54.408 125.299 54.672 125.427 54.912C125.571 55.136 125.763 55.336 126.003 55.512C126.259 55.688 126.539 55.864 126.843 56.04L130.611 58.368C131.251 58.688 131.755 59.152 132.123 59.76C132.491 60.368 132.651 61.104 132.603 61.968C132.555 62.864 132.291 63.64 131.811 64.296C131.347 64.952 130.699 65.456 129.867 65.808C129.051 66.144 128.083 66.312 126.963 66.312C126.275 66.312 125.635 66.256 125.043 66.144C124.451 66.032 123.939 65.88 123.507 65.688C123.091 65.496 122.771 65.28 122.547 65.04C122.419 64.72 122.363 64.336 122.379 63.888C122.395 63.424 122.467 62.968 122.595 62.52C122.723 62.056 122.883 61.672 123.075 61.368H123.267C123.219 62.088 123.347 62.752 123.651 63.36C123.971 63.968 124.435 64.456 125.043 64.824C125.651 65.176 126.379 65.352 127.227 65.352C128.155 65.352 128.851 65.136 129.315 64.704C129.779 64.272 130.011 63.768 130.011 63.192C130.011 62.76 129.867 62.376 129.579 62.04C129.307 61.688 128.851 61.344 128.211 61.008L124.803 58.848C124.003 58.432 123.419 57.88 123.051 57.192C122.699 56.504 122.571 55.752 122.667 54.936C122.747 54.168 122.971 53.512 123.339 52.968C123.723 52.424 124.227 52.008 124.851 51.72C125.475 51.432 126.187 51.288 126.987 51.288ZM131.403 51.504L131.379 51.936H128.811V51.504H131.403ZM151.394 51.672V66H147.914V51.672H151.394ZM156.626 51.576V52.536H142.706V51.576H156.626ZM156.626 52.464V55.008H156.362V54.792C156.378 54.104 156.186 53.56 155.786 53.16C155.402 52.76 154.866 52.552 154.178 52.536V52.464H156.626ZM156.626 51.216V51.816L154.082 51.576C154.386 51.576 154.714 51.56 155.066 51.528C155.418 51.48 155.738 51.432 156.026 51.384C156.314 51.32 156.514 51.264 156.626 51.216ZM147.962 64.488V66H146.354V65.76C146.354 65.76 146.394 65.76 146.474 65.76C146.57 65.76 146.618 65.76 146.618 65.76C146.97 65.76 147.266 65.64 147.506 65.4C147.762 65.144 147.898 64.84 147.914 64.488H147.962ZM151.322 64.488H151.394C151.394 64.84 151.522 65.144 151.778 65.4C152.034 65.64 152.346 65.76 152.714 65.76C152.714 65.76 152.754 65.76 152.834 65.76C152.93 65.76 152.978 65.76 152.978 65.76V66H151.322V64.488ZM145.154 52.464V52.536C144.45 52.552 143.906 52.76 143.522 53.16C143.154 53.56 142.97 54.104 142.97 54.792V55.008H142.706V52.464H145.154ZM142.706 51.216C142.85 51.248 143.058 51.296 143.33 51.36C143.618 51.424 143.93 51.48 144.266 51.528C144.618 51.56 144.938 51.576 145.226 51.576L142.706 51.816V51.216ZM172.132 50.952L179.236 65.88H175.18L170.716 55.344L172.132 50.952ZM167.62 64.416C167.444 64.848 167.468 65.184 167.692 65.424C167.916 65.648 168.164 65.76 168.436 65.76H168.628V66H163.828V65.76C163.828 65.76 163.86 65.76 163.924 65.76C163.988 65.76 164.02 65.76 164.02 65.76C164.34 65.76 164.676 65.664 165.028 65.472C165.38 65.264 165.668 64.912 165.892 64.416H167.62ZM172.132 50.952L172.18 53.832L166.972 65.928H165.196L170.812 53.856C170.844 53.76 170.916 53.592 171.028 53.352C171.14 53.096 171.26 52.816 171.388 52.512C171.516 52.192 171.636 51.896 171.748 51.624C171.86 51.336 171.924 51.112 171.94 50.952H172.132ZM174.22 61.296V62.232H168.1V61.296H174.22ZM174.58 64.416H178.54C178.78 64.912 179.076 65.264 179.428 65.472C179.78 65.664 180.116 65.76 180.436 65.76C180.436 65.76 180.468 65.76 180.532 65.76C180.596 65.76 180.628 65.76 180.628 65.76V66H173.572V65.76H173.764C174.036 65.76 174.284 65.648 174.508 65.424C174.732 65.184 174.756 64.848 174.58 64.416ZM193.765 51.6V60.648C193.765 62.12 194.101 63.272 194.773 64.104C195.461 64.936 196.413 65.352 197.629 65.352C198.893 65.352 199.869 64.96 200.557 64.176C201.261 63.392 201.621 62.304 201.637 60.912V51.6H203.221V60.768C203.221 62.48 202.693 63.832 201.637 64.824C200.597 65.816 199.117 66.312 197.197 66.312C194.877 66.312 193.149 65.824 192.013 64.848C190.877 63.856 190.309 62.504 190.309 60.792V51.6H193.765ZM190.357 51.6V52.848H190.309C190.293 52.544 190.181 52.296 189.973 52.104C189.765 51.912 189.509 51.816 189.205 51.816C189.205 51.816 189.149 51.816 189.037 51.816C188.925 51.816 188.869 51.816 188.869 51.816V51.6H190.357ZM195.181 51.6V51.816C195.181 51.816 195.125 51.816 195.013 51.816C194.901 51.816 194.845 51.816 194.845 51.816C194.541 51.816 194.285 51.912 194.077 52.104C193.869 52.296 193.765 52.544 193.765 52.848H193.717V51.6H195.181ZM201.685 51.6V52.848H201.637C201.621 52.544 201.509 52.296 201.301 52.104C201.093 51.912 200.845 51.816 200.557 51.816C200.557 51.816 200.501 51.816 200.389 51.816C200.277 51.816 200.221 51.816 200.221 51.816V51.6H201.685ZM204.637 51.6V51.816C204.637 51.816 204.581 51.816 204.469 51.816C204.373 51.816 204.325 51.816 204.325 51.816C204.021 51.816 203.757 51.912 203.533 52.104C203.325 52.296 203.221 52.544 203.221 52.848H203.173V51.6H204.637ZM220.047 51.6H222.639C223.295 51.6 223.935 51.672 224.559 51.816C225.183 51.944 225.743 52.16 226.239 52.464C226.735 52.752 227.127 53.152 227.415 53.664C227.719 54.16 227.871 54.784 227.871 55.536C227.871 56.096 227.751 56.656 227.511 57.216C227.287 57.76 226.927 58.232 226.431 58.632C225.951 59.032 225.319 59.296 224.535 59.424C224.999 59.568 225.439 59.848 225.855 60.264C226.287 60.68 226.623 61.072 226.863 61.44C226.927 61.568 227.039 61.776 227.199 62.064C227.359 62.336 227.559 62.656 227.799 63.024C228.055 63.376 228.319 63.744 228.591 64.128C228.911 64.56 229.191 64.896 229.431 65.136C229.671 65.36 229.919 65.52 230.175 65.616C230.431 65.712 230.727 65.76 231.063 65.76V66H229.047C228.183 66 227.447 65.936 226.839 65.808C226.247 65.68 225.727 65.448 225.279 65.112C224.847 64.76 224.447 64.288 224.079 63.696C223.935 63.488 223.783 63.24 223.623 62.952C223.463 62.648 223.303 62.344 223.143 62.04C222.983 61.736 222.839 61.44 222.711 61.152C222.599 60.864 222.519 60.624 222.471 60.432C222.263 59.92 222.023 59.552 221.751 59.328C221.495 59.088 221.255 58.968 221.031 58.968V58.752C221.031 58.752 221.087 58.752 221.199 58.752C221.311 58.752 221.455 58.752 221.631 58.752C221.967 58.752 222.295 58.696 222.615 58.584C222.951 58.456 223.255 58.224 223.527 57.888C223.799 57.536 223.999 57.024 224.127 56.352C224.159 56.256 224.183 56.12 224.199 55.944C224.231 55.768 224.239 55.568 224.223 55.344C224.191 54.752 224.079 54.28 223.887 53.928C223.711 53.56 223.487 53.288 223.215 53.112C222.943 52.92 222.663 52.792 222.375 52.728C222.103 52.648 221.863 52.608 221.655 52.608C221.351 52.592 221.071 52.592 220.815 52.608C220.575 52.608 220.391 52.6 220.263 52.584C220.247 52.584 220.223 52.504 220.191 52.344C220.159 52.168 220.127 52 220.095 51.84C220.063 51.68 220.047 51.6 220.047 51.6ZM220.287 51.6V66H216.807V51.6H220.287ZM216.879 64.488L216.975 66H215.247V65.76C215.263 65.76 215.303 65.76 215.367 65.76C215.447 65.76 215.503 65.76 215.535 65.76C215.887 65.76 216.183 65.64 216.423 65.4C216.679 65.144 216.815 64.84 216.831 64.488H216.879ZM216.879 53.088H216.831C216.815 52.72 216.679 52.424 216.423 52.2C216.183 51.96 215.895 51.84 215.559 51.84C215.511 51.84 215.447 51.84 215.367 51.84C215.303 51.84 215.263 51.84 215.247 51.84V51.6H216.975L216.879 53.088ZM220.239 64.488H220.287C220.287 64.888 220.423 65.2 220.695 65.424C220.983 65.648 221.287 65.76 221.607 65.76C221.607 65.76 221.639 65.76 221.703 65.76C221.767 65.76 221.815 65.76 221.847 65.76V66H220.119L220.239 64.488ZM247.281 50.952L254.385 65.88H250.329L245.865 55.344L247.281 50.952ZM242.769 64.416C242.593 64.848 242.617 65.184 242.841 65.424C243.065 65.648 243.313 65.76 243.585 65.76H243.777V66H238.977V65.76C238.977 65.76 239.009 65.76 239.073 65.76C239.137 65.76 239.169 65.76 239.169 65.76C239.489 65.76 239.825 65.664 240.177 65.472C240.529 65.264 240.817 64.912 241.041 64.416H242.769ZM247.281 50.952L247.329 53.832L242.121 65.928H240.345L245.961 53.856C245.993 53.76 246.065 53.592 246.177 53.352C246.289 53.096 246.409 52.816 246.537 52.512C246.665 52.192 246.785 51.896 246.897 51.624C247.009 51.336 247.073 51.112 247.089 50.952H247.281ZM249.369 61.296V62.232H243.249V61.296H249.369ZM249.729 64.416H253.689C253.929 64.912 254.225 65.264 254.577 65.472C254.929 65.664 255.265 65.76 255.585 65.76C255.585 65.76 255.617 65.76 255.681 65.76C255.745 65.76 255.777 65.76 255.777 65.76V66H248.721V65.76H248.913C249.185 65.76 249.433 65.648 249.657 65.424C249.881 65.184 249.905 64.848 249.729 64.416ZM266.375 51.264L280.463 63.648L280.703 66.312L266.639 53.928L266.375 51.264ZM266.471 64.536V66H264.695V65.76C264.695 65.76 264.759 65.76 264.887 65.76C265.015 65.76 265.079 65.76 265.079 65.76C265.447 65.76 265.759 65.648 266.015 65.424C266.271 65.184 266.399 64.888 266.399 64.536H266.471ZM269.687 64.536C269.703 64.888 269.839 65.184 270.095 65.424C270.351 65.648 270.655 65.76 271.007 65.76C271.007 65.76 271.071 65.76 271.199 65.76C271.343 65.76 271.415 65.76 271.415 65.76V66H269.639V64.536H269.687ZM266.375 51.264L269.687 54.864V66H266.399V54C266.399 53.184 266.359 52.528 266.279 52.032C266.199 51.52 266.159 51.264 266.159 51.264H266.375ZM280.679 51.6V63.504C280.679 64.064 280.695 64.56 280.727 64.992C280.775 65.408 280.815 65.736 280.847 65.976C280.895 66.2 280.919 66.312 280.919 66.312H280.703L277.391 62.496V51.6H280.679ZM280.607 53.064V51.6H282.407V51.84C282.407 51.84 282.335 51.84 282.191 51.84C282.063 51.84 281.999 51.84 281.999 51.84C281.647 51.84 281.335 51.96 281.063 52.2C280.807 52.424 280.679 52.712 280.679 53.064H280.607ZM277.391 53.064C277.375 52.712 277.239 52.424 276.983 52.2C276.743 51.96 276.439 51.84 276.071 51.84C276.071 51.84 275.999 51.84 275.855 51.84C275.727 51.84 275.663 51.84 275.663 51.84V51.6H277.439V53.064H277.391ZM300.942 51.672V66H297.462V51.672H300.942ZM306.174 51.576V52.536H292.254V51.576H306.174ZM306.174 52.464V55.008H305.91V54.792C305.926 54.104 305.734 53.56 305.334 53.16C304.95 52.76 304.414 52.552 303.726 52.536V52.464H306.174ZM306.174 51.216V51.816L303.63 51.576C303.934 51.576 304.262 51.56 304.614 51.528C304.966 51.48 305.286 51.432 305.574 51.384C305.862 51.32 306.062 51.264 306.174 51.216ZM297.51 64.488V66H295.902V65.76C295.902 65.76 295.942 65.76 296.022 65.76C296.118 65.76 296.166 65.76 296.166 65.76C296.518 65.76 296.814 65.64 297.054 65.4C297.31 65.144 297.446 64.84 297.462 64.488H297.51ZM300.87 64.488H300.942C300.942 64.84 301.07 65.144 301.326 65.4C301.582 65.64 301.894 65.76 302.262 65.76C302.262 65.76 302.302 65.76 302.382 65.76C302.478 65.76 302.526 65.76 302.526 65.76V66H300.87V64.488ZM294.702 52.464V52.536C293.998 52.552 293.454 52.76 293.07 53.16C292.702 53.56 292.518 54.104 292.518 54.792V55.008H292.254V52.464H294.702ZM292.254 51.216C292.398 51.248 292.606 51.296 292.878 51.36C293.166 51.424 293.478 51.48 293.814 51.528C294.166 51.56 294.486 51.576 294.774 51.576L292.254 51.816V51.216Z" fill="white"/>
</svg>
